USFL
nRows=217
nColumns=2
inDegrees=yes
endheader
time	tib_ant_r	
3.09375	 71.233556	
3.12702	 71.283806	
3.16028	 71.289129	
3.19355	 71.284629	
3.22681	 71.288473	
3.26008	 71.288814	
3.29335	 71.307133	
3.32661	 71.339734	
3.35988	 71.382927	
3.39315	 71.391616	
3.42641	 71.397263	
3.45968	 71.420013	
3.49294	 71.423060	
3.52621	 71.410566	
3.55948	 71.412340	
3.59274	 71.416256	
3.62601	 71.366339	
3.65927	 71.373197	
3.69254	 71.407589	
3.72581	 71.378493	
3.75907	 71.379867	
3.79234	 71.379308	
3.8256	 71.415634	
3.85887	 71.419663	
3.89214	 71.437405	
3.9254	 71.477350	
3.95867	 71.405372	
3.99194	 71.381566	
4.0252	 71.389721	
4.05847	 71.366420	
4.09173	 71.359921	
4.125	 71.370979	
4.15827	 71.392963	
4.19153	 71.354588	
4.2248	 71.338436	
4.25806	 71.359070	
4.29133	 71.371091	
4.3246	 71.326909	
4.35786	 71.330693	
4.39113	 71.283584	
4.4244	 71.243138	
4.45766	 71.193623	
4.49093	 71.198779	
4.52419	 71.162423	
4.55746	 71.161657	
4.59073	 71.157407	
4.62399	 71.157352	
4.65726	 71.150061	
4.69052	 71.186272	
4.72379	 71.220239	
4.75706	 71.216670	
4.79032	 71.180385	
4.82359	 71.097203	
4.85685	 71.112430	
4.89012	 70.616066	
4.92339	 70.778381	
4.95665	 70.172560	
4.98992	 70.003889	
5.02319	 70.145021	
5.05645	 70.267641	
5.08972	 70.388707	
5.12298	 70.407600	
5.15625	 70.021904	
5.18952	 56.138824	
5.22278	 56.125731	
5.25605	 56.473049	
5.28931	 56.897725	
5.32258	 56.688977	
5.35585	 56.700959	
5.38911	 57.013699	
5.42238	 56.858562	
5.45565	 57.028093	
5.48891	 57.247932	
5.52218	 56.947610	
5.55544	 56.753898	
5.58871	 56.717480	
5.62198	 56.539009	
5.65524	 56.505892	
5.68851	 56.481894	
5.72177	 56.486015	
5.75504	 56.412035	
5.78831	 56.362681	
5.82157	 56.180239	
5.85484	 56.100422	
5.8881	 56.228523	
5.92137	 56.351410	
5.95464	 56.319512	
5.9879	 56.283348	
6.02117	 56.363312	
6.05444	 56.590760	
6.0877	 56.696070	
6.12097	 56.802750	
6.15423	 56.732622	
6.1875	 56.550518	
6.22077	 56.523010	
6.25403	 56.407003	
6.2873	 56.358387	
6.32056	 56.304814	
6.35383	 56.138970	
6.3871	 56.058545	
6.42036	 56.082395	
6.45363	 56.040925	
6.4869	 56.030539	
6.52016	 56.049724	
6.55343	 56.098496	
6.58669	 56.131889	
6.61996	 56.214482	
6.65323	 56.267174	
6.68649	 56.303316	
6.71976	 56.349923	
6.75302	 56.401060	
6.78629	 56.401517	
6.81956	 56.333292	
6.85282	 56.320480	
6.88609	 56.325144	
6.91935	 56.391379	
6.95262	 56.370461	
6.98589	 56.394812	
7.01915	 56.329978	
7.05242	 56.317801	
7.08569	 56.344794	
7.11895	 56.330479	
7.15222	 56.355000	
7.18548	 56.414402	
7.21875	 56.413935	
7.25202	 56.440197	
7.28528	 56.424658	
7.31855	 56.485125	
7.35181	 56.672710	
7.38508	 56.675821	
7.41835	 56.566255	
7.45161	 56.474552	
7.48488	 56.493828	
7.51815	 56.498723	
7.55141	 56.464879	
7.58468	 56.465283	
7.61794	 56.505710	
7.65121	 56.510066	
7.68448	 56.501860	
7.71774	 56.539512	
7.75101	 56.515866	
7.78427	 56.566520	
7.81754	 56.574840	
7.85081	 56.596388	
7.88407	 56.617523	
7.91734	 56.640129	
7.9506	 56.630010	
7.98387	 56.656876	
8.01714	 56.647224	
8.0504	 56.628864	
8.08367	 56.628666	
8.11694	 56.639889	
8.1502	 56.673080	
8.18347	 56.639225	
8.21673	 56.683781	
8.25	 56.627491	
8.28327	 56.557035	
8.31653	 56.534956	
8.3498	 56.587092	
8.38306	 56.642386	
8.41633	 56.647745	
8.4496	 56.641709	
8.48286	 56.691575	
8.51613	 56.627204	
8.5494	 56.547305	
8.58266	 56.587270	
8.61593	 56.651471	
8.64919	 56.729747	
8.68246	 56.815683	
8.71573	 56.704594	
8.74899	 56.683510	
8.78226	 56.687898	
8.81552	 56.604940	
8.84879	 56.577972	
8.88206	 56.542553	
8.91532	 56.503757	
8.94859	 56.536926	
8.98185	 56.458302	
9.01512	 56.452664	
9.04839	 56.472105	
9.08165	 56.477607	
9.11492	 56.475043	
9.14819	 56.486676	
9.18145	 56.456387	
9.21472	 56.441726	
9.24798	 56.404676	
9.28125	 56.394841	
9.31452	 56.440673	
9.34778	 56.454958	
9.38105	 56.538863	
9.41431	 56.527524	
9.44758	 56.578778	
9.48085	 56.539236	
9.51411	 56.413010	
9.54738	 56.637009	
9.58065	 57.147798	
9.61391	 57.242837	
9.64718	 57.372036	
9.68044	 57.360832	
9.71371	 57.681863	
9.74698	 58.017533	
9.78024	 57.961696	
9.81351	 57.927125	
9.84677	 57.791780	
9.88004	 68.831654	
9.91331	 69.292781	
9.94657	 69.633512	
9.97984	 69.587275	
10.0131	 69.191710	
10.0464	 69.028463	
10.0796	 69.172654	
10.1129	 69.160710	
10.1462	 69.120282	
10.1794	 69.231787	
10.2127	 69.175414	
10.246	 69.145067	
10.2792	 69.146379	
